<?xml version="1.0" encoding="UTF-8" standalone="no"?><!DOCTYPE svg PUBLIC "-//W3C//DTD SVG 1.1//EN" "http://www.w3.org/Graphics/SVG/1.1/DTD/svg11.dtd"><svg width="100%" height="100%" viewBox="0 0 41 31" version="1.1" xmlns="http://www.w3.org/2000/svg" xmlns:xlink="http://www.w3.org/1999/xlink" xml:space="preserve" style="fill-rule:evenodd;clip-rule:evenodd;stroke-linejoin:round;stroke-miterlimit:1.41421;"><g><g><path d="M8.978,15.389l9.393,8.156l0,0.001l2.139,1.745l-3.843,0.216l-0.185,0.214l-11.9,-10.332l4.396,0Z" style="fill:#848484;"/><path d="M19.961,4.691l3.079,0c2.036,0 3.783,0.202 5.24,0.604c1.458,0.403 2.676,1.048 3.655,1.936c1.124,1.007 1.967,2.164 2.528,3.473c0.562,1.308 0.843,2.744 0.843,4.307c0,1.48 -0.253,2.871 -0.759,4.174c-0.506,1.302 -1.243,2.439 -2.211,3.41c-0.968,0.971 -2.164,1.735 -3.588,2.291c-1.424,0.557 -3.054,0.835 -4.89,0.835l-7.376,0l0,-1.545l6.825,0c1.124,0 2.178,-0.195 3.163,-0.586c0.984,-0.391 1.841,-0.971 2.57,-1.741c0.728,-0.77 1.304,-1.72 1.727,-2.851c0.423,-1.13 0.634,-2.436 0.634,-3.916c0,-1.291 -0.2,-2.478 -0.601,-3.561c-0.4,-1.084 -0.957,-2.016 -1.669,-2.798c-0.712,-0.781 -1.563,-1.388 -2.553,-1.82c-0.99,-0.433 -2.069,-0.649 -3.237,-0.649l-3.38,0l0,-1.563Z" style="fill:#848484;"/><path d="M17.18,1.124l8.714,0l0,1.537l-4.24,0l-3.729,0c-0.781,0 -1.498,0.125 -2.152,0.374c-0.653,0.249 -1.214,0.595 -1.683,1.039c-0.468,0.443 -0.834,0.969 -1.097,1.579c-0.263,0.609 -0.394,1.281 -0.394,2.015c0,0.803 0.167,1.53 0.501,2.181c0.333,0.651 0.795,1.205 1.384,1.662c0.59,0.457 1.289,0.807 2.099,1.049c0.81,0.243 1.69,0.364 2.642,0.364l2,0l0,1.916l-3.013,-0.21l-8.276,11.091l-4.922,0l9.183,-11.945c-0.909,-0.208 -1.744,-0.509 -2.504,-0.904c-0.76,-0.395 -1.413,-0.859 -1.96,-1.392c-0.547,-0.533 -0.969,-1.132 -1.268,-1.797c-0.298,-0.665 -0.447,-1.378 -0.447,-2.14c0,-0.928 0.192,-1.787 0.575,-2.576c0.384,-0.789 0.959,-1.468 1.726,-2.036c0.767,-0.568 1.722,-1.011 2.866,-1.33c1.143,-0.318 2.475,-0.477 3.995,-0.477Z" style="fill:#3f4f84;"/></g><g><path d="M5.572,29.113c0.069,0.12 0.159,0.209 0.27,0.268c0.11,0.058 0.236,0.088 0.378,0.088c0.088,0 0.17,-0.014 0.248,-0.04c0.077,-0.027 0.144,-0.064 0.202,-0.112c0.057,-0.048 0.102,-0.106 0.136,-0.174c0.033,-0.068 0.05,-0.145 0.05,-0.23c0,-0.099 -0.021,-0.18 -0.062,-0.244c-0.042,-0.064 -0.097,-0.117 -0.166,-0.158c-0.07,-0.042 -0.148,-0.077 -0.234,-0.106c-0.087,-0.03 -0.176,-0.059 -0.268,-0.088c-0.092,-0.03 -0.182,-0.063 -0.268,-0.1c-0.087,-0.038 -0.165,-0.086 -0.234,-0.146c-0.07,-0.06 -0.125,-0.136 -0.166,-0.226c-0.042,-0.091 -0.062,-0.203 -0.062,-0.336c0,-0.126 0.024,-0.237 0.074,-0.334c0.049,-0.098 0.116,-0.179 0.2,-0.244c0.084,-0.066 0.18,-0.115 0.29,-0.148c0.109,-0.034 0.224,-0.05 0.344,-0.05c0.154,0 0.298,0.027 0.43,0.082c0.132,0.054 0.246,0.146 0.342,0.274l-0.228,0.164c-0.067,-0.094 -0.145,-0.164 -0.234,-0.21c-0.09,-0.047 -0.196,-0.07 -0.318,-0.07c-0.086,0 -0.167,0.011 -0.244,0.034c-0.078,0.022 -0.145,0.056 -0.202,0.1c-0.058,0.044 -0.104,0.099 -0.138,0.166c-0.035,0.066 -0.052,0.145 -0.052,0.236c0,0.141 0.036,0.25 0.108,0.326c0.072,0.076 0.162,0.136 0.27,0.18c0.108,0.044 0.225,0.082 0.352,0.116c0.126,0.033 0.244,0.078 0.352,0.134c0.108,0.056 0.198,0.134 0.27,0.234c0.072,0.1 0.108,0.238 0.108,0.414c0,0.128 -0.024,0.241 -0.072,0.34c-0.048,0.098 -0.113,0.182 -0.194,0.25c-0.082,0.068 -0.176,0.119 -0.282,0.154c-0.107,0.034 -0.218,0.052 -0.332,0.052c-0.187,0 -0.359,-0.033 -0.516,-0.098c-0.158,-0.066 -0.292,-0.176 -0.404,-0.33l0.252,-0.168Z" style="fill-rule:nonzero;"/><path d="M8.396,28.221c0,-0.216 0.036,-0.415 0.108,-0.596c0.072,-0.182 0.172,-0.338 0.3,-0.47c0.128,-0.132 0.282,-0.236 0.462,-0.31c0.18,-0.075 0.378,-0.112 0.594,-0.112c0.216,0 0.414,0.037 0.594,0.112c0.18,0.074 0.334,0.178 0.462,0.31c0.128,0.132 0.228,0.288 0.3,0.47c0.072,0.181 0.108,0.38 0.108,0.596c0,0.216 -0.036,0.415 -0.108,0.598c-0.072,0.182 -0.172,0.34 -0.3,0.472c-0.128,0.132 -0.282,0.234 -0.462,0.308c-0.18,0.073 -0.378,0.11 -0.594,0.11c-0.216,0 -0.414,-0.037 -0.594,-0.11c-0.18,-0.074 -0.334,-0.176 -0.462,-0.308c-0.128,-0.132 -0.228,-0.29 -0.3,-0.472c-0.072,-0.183 -0.108,-0.382 -0.108,-0.598Zm0.264,0c0,0.176 0.028,0.34 0.084,0.492c0.056,0.152 0.136,0.284 0.24,0.396c0.104,0.112 0.23,0.2 0.378,0.264c0.148,0.064 0.314,0.096 0.498,0.096c0.184,0 0.35,-0.032 0.498,-0.096c0.148,-0.064 0.274,-0.152 0.378,-0.264c0.104,-0.112 0.184,-0.244 0.24,-0.396c0.056,-0.152 0.084,-0.316 0.084,-0.492c0,-0.176 -0.028,-0.34 -0.084,-0.492c-0.056,-0.152 -0.136,-0.284 -0.24,-0.396c-0.104,-0.112 -0.23,-0.2 -0.378,-0.264c-0.148,-0.064 -0.314,-0.096 -0.498,-0.096c-0.184,0 -0.35,0.032 -0.498,0.096c-0.148,0.064 -0.274,0.152 -0.378,0.264c-0.104,0.112 -0.184,0.244 -0.24,0.396c-0.056,0.152 -0.084,0.316 -0.084,0.492Z" style="fill-rule:nonzero;"/><path d="M12.776,26.805l0.264,0l0,2.592l1.32,0l0,0.24l-1.584,0l0,-2.832Z" style="fill-rule:nonzero;"/><path d="M17.648,28.553c0,0.152 -0.018,0.297 -0.052,0.436c-0.035,0.138 -0.093,0.261 -0.174,0.368c-0.082,0.106 -0.188,0.192 -0.32,0.256c-0.132,0.064 -0.294,0.096 -0.486,0.096c-0.192,0 -0.354,-0.032 -0.486,-0.096c-0.132,-0.064 -0.239,-0.15 -0.32,-0.256c-0.082,-0.107 -0.14,-0.23 -0.174,-0.368c-0.035,-0.139 -0.052,-0.284 -0.052,-0.436l0,-1.748l0.264,0l0,1.68c0,0.101 0.009,0.209 0.028,0.324c0.018,0.114 0.055,0.221 0.11,0.32c0.054,0.098 0.132,0.18 0.232,0.244c0.1,0.064 0.232,0.096 0.398,0.096c0.165,0 0.298,-0.032 0.398,-0.096c0.1,-0.064 0.177,-0.146 0.232,-0.244c0.054,-0.099 0.091,-0.206 0.11,-0.32c0.018,-0.115 0.028,-0.223 0.028,-0.324l0,-1.68l0.264,0l0,1.748Z" style="fill-rule:nonzero;"/><path d="M19.86,27.045l-0.968,0l0,-0.24l2.2,0l0,0.24l-0.968,0l0,2.592l-0.264,0l0,-2.592Z" style="fill-rule:nonzero;"/><rect x="22.388" y="26.805" width="0.264" height="2.832" style="fill-rule:nonzero;"/><path d="M24.104,28.221c0,-0.216 0.036,-0.415 0.108,-0.596c0.072,-0.182 0.172,-0.338 0.3,-0.47c0.128,-0.132 0.282,-0.236 0.462,-0.31c0.18,-0.075 0.378,-0.112 0.594,-0.112c0.216,0 0.414,0.037 0.594,0.112c0.18,0.074 0.334,0.178 0.462,0.31c0.128,0.132 0.228,0.288 0.3,0.47c0.072,0.181 0.108,0.38 0.108,0.596c0,0.216 -0.036,0.415 -0.108,0.598c-0.072,0.182 -0.172,0.34 -0.3,0.472c-0.128,0.132 -0.282,0.234 -0.462,0.308c-0.18,0.073 -0.378,0.11 -0.594,0.11c-0.216,0 -0.414,-0.037 -0.594,-0.11c-0.18,-0.074 -0.334,-0.176 -0.462,-0.308c-0.128,-0.132 -0.228,-0.29 -0.3,-0.472c-0.072,-0.183 -0.108,-0.382 -0.108,-0.598Zm0.264,0c0,0.176 0.028,0.34 0.084,0.492c0.056,0.152 0.136,0.284 0.24,0.396c0.104,0.112 0.23,0.2 0.378,0.264c0.148,0.064 0.314,0.096 0.498,0.096c0.184,0 0.35,-0.032 0.498,-0.096c0.148,-0.064 0.274,-0.152 0.378,-0.264c0.104,-0.112 0.184,-0.244 0.24,-0.396c0.056,-0.152 0.084,-0.316 0.084,-0.492c0,-0.176 -0.028,-0.34 -0.084,-0.492c-0.056,-0.152 -0.136,-0.284 -0.24,-0.396c-0.104,-0.112 -0.23,-0.2 -0.378,-0.264c-0.148,-0.064 -0.314,-0.096 -0.498,-0.096c-0.184,0 -0.35,0.032 -0.498,0.096c-0.148,0.064 -0.274,0.152 -0.378,0.264c-0.104,0.112 -0.184,0.244 -0.24,0.396c-0.056,0.152 -0.084,0.316 -0.084,0.492Z" style="fill-rule:nonzero;"/><path d="M28.484,26.805l0.34,0l1.724,2.48l0.008,0l0,-2.48l0.264,0l0,2.832l-0.34,0l-1.724,-2.48l-0.008,0l0,2.48l-0.264,0l0,-2.832Z" style="fill-rule:nonzero;"/><path d="M32.532,29.113c0.069,0.12 0.159,0.209 0.27,0.268c0.11,0.058 0.236,0.088 0.378,0.088c0.088,0 0.17,-0.014 0.248,-0.04c0.077,-0.027 0.144,-0.064 0.202,-0.112c0.057,-0.048 0.102,-0.106 0.136,-0.174c0.033,-0.068 0.05,-0.145 0.05,-0.23c0,-0.099 -0.021,-0.18 -0.062,-0.244c-0.042,-0.064 -0.097,-0.117 -0.166,-0.158c-0.07,-0.042 -0.148,-0.077 -0.234,-0.106c-0.087,-0.03 -0.176,-0.059 -0.268,-0.088c-0.092,-0.03 -0.182,-0.063 -0.268,-0.1c-0.087,-0.038 -0.165,-0.086 -0.234,-0.146c-0.07,-0.06 -0.125,-0.136 -0.166,-0.226c-0.042,-0.091 -0.062,-0.203 -0.062,-0.336c0,-0.126 0.024,-0.237 0.074,-0.334c0.049,-0.098 0.116,-0.179 0.2,-0.244c0.084,-0.066 0.18,-0.115 0.29,-0.148c0.109,-0.034 0.224,-0.05 0.344,-0.05c0.154,0 0.298,0.027 0.43,0.082c0.132,0.054 0.246,0.146 0.342,0.274l-0.228,0.164c-0.067,-0.094 -0.145,-0.164 -0.234,-0.21c-0.09,-0.047 -0.196,-0.07 -0.318,-0.07c-0.086,0 -0.167,0.011 -0.244,0.034c-0.078,0.022 -0.145,0.056 -0.202,0.1c-0.058,0.044 -0.104,0.099 -0.138,0.166c-0.035,0.066 -0.052,0.145 -0.052,0.236c0,0.141 0.036,0.25 0.108,0.326c0.072,0.076 0.162,0.136 0.27,0.18c0.108,0.044 0.225,0.082 0.352,0.116c0.126,0.033 0.244,0.078 0.352,0.134c0.108,0.056 0.198,0.134 0.27,0.234c0.072,0.1 0.108,0.238 0.108,0.414c0,0.128 -0.024,0.241 -0.072,0.34c-0.048,0.098 -0.113,0.182 -0.194,0.25c-0.082,0.068 -0.176,0.119 -0.282,0.154c-0.107,0.034 -0.218,0.052 -0.332,0.052c-0.187,0 -0.359,-0.033 -0.516,-0.098c-0.158,-0.066 -0.292,-0.176 -0.404,-0.33l0.252,-0.168Z" style="fill-rule:nonzero;"/></g></g></svg>