<?xml version="1.0" encoding="UTF-8" standalone="no"?>
<svg
   xmlns:dc="http://purl.org/dc/elements/1.1/"
   xmlns:cc="http://creativecommons.org/ns#"
   xmlns:rdf="http://www.w3.org/1999/02/22-rdf-syntax-ns#"
   xmlns:svg="http://www.w3.org/2000/svg"
   xmlns="http://www.w3.org/2000/svg"
   xmlns:sodipodi="http://sodipodi.sourceforge.net/DTD/sodipodi-0.dtd"
   xmlns:inkscape="http://www.inkscape.org/namespaces/inkscape"
   width="100%"
   height="100%"
   viewBox="0 0 1250 652"
   version="1.1"
   xml:space="preserve"
   style="fill-rule:evenodd;clip-rule:evenodd;stroke-linejoin:round;stroke-miterlimit:1.41421;"
   id="svg4362"
   sodipodi:docname="mainimage_light.svg"
   inkscape:version="0.92.4 (5da689c313, 2019-01-14)"><metadata
     id="metadata4368"><rdf:RDF><cc:Work
         rdf:about=""><dc:format>image/svg+xml</dc:format><dc:type
           rdf:resource="http://purl.org/dc/dcmitype/StillImage" /><dc:title></dc:title></cc:Work></rdf:RDF></metadata><defs
     id="defs4366" /><sodipodi:namedview
     pagecolor="#ffffff"
     bordercolor="#666666"
     borderopacity="1"
     objecttolerance="10"
     gridtolerance="10"
     guidetolerance="10"
     inkscape:pageopacity="0"
     inkscape:pageshadow="2"
     inkscape:window-width="2736"
     inkscape:window-height="1699"
     id="namedview4364"
     showgrid="false"
     inkscape:snap-global="false"
     inkscape:zoom="2.0688"
     inkscape:cx="527.84223"
     inkscape:cy="326"
     inkscape:window-x="-13"
     inkscape:window-y="-13"
     inkscape:window-maximized="1"
     inkscape:current-layer="svg4362" /><rect
     x="0"
     y="0"
     width="1250"
     height="651.25"
     style="fill:#fff;opacity:0.5"
     id="rect4066" /><g
     id="g4072"
     style="opacity:0.5"><path
       d="M397.958,706.579l0,-74.488l-61.709,25.56l0,74.489l61.709,-25.561Z"
       style="fill:#efefef"
       id="path4068" /><path
       d="M403.388,706.579l0,-74.488l61.708,25.56l0,74.489l-61.708,-25.561Z"
       style="fill:#efefef"
       id="path4070" /></g><g
     id="g4078"
     style="opacity:0.5"><path
       d="M531.754,706.579l0,-74.488l-61.708,25.56l0,74.489l61.708,-25.561Z"
       style="fill:#efefef"
       id="path4074" /><path
       d="M537.184,706.579l0,-74.488l61.709,25.56l0,74.489l-61.709,-25.561Z"
       style="fill:#efefef"
       id="path4076" /></g><g
     id="g4086"
     style="opacity:0.5"><path
       d="M531.67,490.386l0,-74.489l-61.708,25.561l0,74.489l61.708,-25.561Z"
       style="fill:#efefef"
       id="path4080" /><path
       d="M537.101,490.386l0,-74.489l61.708,25.561l0,74.489l-61.708,-25.561Z"
       style="fill:#efefef"
       id="path4082" /><path
       d="M595.847,520.024l-61.708,-25.472l-60.455,25.127l61.709,25.472l60.454,-25.127Z"
       style="fill:#efefef"
       id="path4084" /></g><g
     id="g4098"
     style="opacity:0.5"><path
       d="M464.532,598.167l0,-74.489l-61.709,25.56l0,74.489l61.709,-25.56Z"
       style="fill:#efefef"
       id="path4088" /><path
       d="M469.962,598.167l0,-74.489l61.708,25.56l0,74.489l-61.708,-25.56Z"
       style="fill:#efefef"
       id="path4090" /><path
       d="M528.708,627.804l-61.708,-25.472l-60.454,25.128l61.708,25.472l60.454,-25.128Z"
       style="fill:#efefef"
       id="path4092" /><path
       d="M335.375,598.11l0,-74.488l61.708,25.56l0,74.489l-61.708,-25.561Z"
       style="fill:#efefef"
       id="path4094" /><path
       d="M394.121,627.748l-61.708,-25.472l-60.455,25.128l61.709,25.472l60.454,-25.128Z"
       style="fill:#efefef"
       id="path4096" /></g><g
     id="g4104"
     style="opacity:0.5"><path
       d="M263.5,706.204l0,-74.489l-61.709,25.561l0,74.489l61.709,-25.561Z"
       style="fill:#efefef"
       id="path4100" /><path
       d="M268.93,706.204l0,-74.489l61.709,25.561l0,74.489l-61.709,-25.561Z"
       style="fill:#efefef"
       id="path4102" /></g><g
     id="g4112"
     style="opacity:0.5"><path
       d="M397.213,490.011l0,-74.489l-61.709,25.561l0,74.488l61.709,-25.56Z"
       style="fill:#efefef"
       id="path4106" /><path
       d="M402.643,490.011l0,-74.489l61.709,25.561l0,74.488l-61.709,-25.56Z"
       style="fill:#efefef"
       id="path4108" /><path
       d="M461.39,519.648l-61.709,-25.472l-60.454,25.128l61.708,25.472l60.455,-25.128Z"
       style="fill:#efefef"
       id="path4110" /></g><g
     id="g4116"
     style="opacity:0.5"><path
       d="M0.86,706.441l0,-74.489l61.708,25.56l0,74.489l-61.708,-25.56Z"
       style="fill:#efefef"
       id="path4114" /></g><g
     id="g4122"
     style="opacity:0.5"><path
       d="M129.226,706.441l0,-74.489l-61.709,25.56l0,74.489l61.709,-25.56Z"
       style="fill:#efefef"
       id="path4118" /><path
       d="M134.656,706.441l0,-74.489l61.709,25.56l0,74.489l-61.709,-25.56Z"
       style="fill:#efefef"
       id="path4120" /></g><g
     id="g4130"
     style="opacity:0.5"><path
       d="M129.142,490.247l0,-74.488l-61.708,25.56l0,74.489l61.708,-25.561Z"
       style="fill:#efefef"
       id="path4124" /><path
       d="M134.573,490.247l0,-74.488l61.708,25.56l0,74.489l-61.708,-25.561Z"
       style="fill:#efefef"
       id="path4126" /><path
       d="M193.319,519.885l-61.708,-25.472l-60.455,25.128l61.709,25.472l60.454,-25.128Z"
       style="fill:#efefef"
       id="path4128" /></g><g
     id="g4138"
     style="opacity:0.5"><path
       d="M196.281,598.028l0,-74.489l-61.708,25.561l0,74.488l61.708,-25.56Z"
       style="fill:#efefef"
       id="path4132" /><path
       d="M201.712,598.028l0,-74.489l61.708,25.561l0,74.488l-61.708,-25.56Z"
       style="fill:#efefef"
       id="path4134" /><path
       d="M260.458,627.665l-61.708,-25.472l-60.455,25.128l61.709,25.472l60.454,-25.128Z"
       style="fill:#efefef"
       id="path4136" /></g><g
     id="g4146"
     style="opacity:0.5"><path
       d="M62.004,598.028l0,-74.489l-61.709,25.561l0,74.488l61.709,-25.56Z"
       style="fill:#efefef"
       id="path4140" /><path
       d="M67.434,598.028l0,-74.489l61.708,25.561l0,74.488l-61.708,-25.56Z"
       style="fill:#efefef"
       id="path4142" /><path
       d="M126.18,627.665l-61.708,-25.472l-60.455,25.128l61.709,25.472l60.454,-25.128Z"
       style="fill:#efefef"
       id="path4144" /></g><g
     id="g4154"
     style="opacity:0.5"><path
       d="M262.939,490.247l0,-74.488l-61.709,25.56l0,74.489l61.709,-25.561Z"
       style="fill:#efefef"
       id="path4148" /><path
       d="M268.369,490.247l0,-74.488l61.709,25.56l0,74.489l-61.709,-25.561Z"
       style="fill:#efefef"
       id="path4150" /><path
       d="M327.116,519.885l-61.709,-25.472l-60.454,25.128l61.708,25.472l60.455,-25.128Z"
       style="fill:#efefef"
       id="path4152" /></g><g
     id="g4160"
     style="opacity:0.5"><path
       d="M0.115,489.872l0,-74.489l61.709,25.561l0,74.488l-61.709,-25.56Z"
       style="fill:#efefef"
       id="path4156" /><path
       d="M58.862,519.509l-61.709,-25.472l-60.454,25.128l61.708,25.472l60.455,-25.128Z"
       style="fill:#efefef"
       id="path4158" /></g><g
     id="g4168"
     style="opacity:0.5"><path
       d="M530.882,274.797l0,-74.489l-61.708,25.561l0,74.489l61.708,-25.561Z"
       style="fill:#efefef"
       id="path4162" /><path
       d="M536.313,274.797l0,-74.489l61.708,25.561l0,74.489l-61.708,-25.561Z"
       style="fill:#efefef"
       id="path4164" /><path
       d="M595.059,304.435l-61.708,-25.472l-60.455,25.127l61.709,25.472l60.454,-25.127Z"
       style="fill:#efefef"
       id="path4166" /></g><g
     id="g4176"
     style="opacity:0.5"><path
       d="M463.744,382.578l0,-74.489l-61.709,25.56l0,74.489l61.709,-25.56Z"
       style="fill:#efefef"
       id="path4170" /><path
       d="M469.174,382.578l0,-74.489l61.708,25.56l0,74.489l-61.708,-25.56Z"
       style="fill:#efefef"
       id="path4172" /><path
       d="M527.92,412.215l-61.708,-25.472l-60.455,25.128l61.709,25.472l60.454,-25.128Z"
       style="fill:#efefef"
       id="path4174" /></g><g
     id="g4190"
     style="opacity:0.5"><path
       d="M664.679,274.797l0,-74.489l-61.709,25.561l0,74.489l61.709,-25.561Z"
       style="fill:#efefef"
       id="path4178" /><path
       d="M664.679,274.797l0,-74.489l-61.709,25.561l0,74.489l61.709,-25.561Z"
       style="fill:#efefef"
       id="path4180" /><path
       d="M670.109,274.797l0,-74.489l61.709,25.561l0,74.489l-61.709,-25.561Z"
       style="fill:#efefef"
       id="path4182" /><path
       d="M728.856,304.435l-61.709,-25.472l-60.454,25.127l61.708,25.472l60.455,-25.127Z"
       style="fill:#efefef"
       id="path4184" /><path
       d="M598.336,383.584l0,-74.489l-61.708,25.561l0,74.488l61.708,-25.56Z"
       style="fill:#efefef"
       id="path4186" /><path
       d="M663.436,412.812l-61.709,-25.472l-60.454,25.128l61.708,25.472l60.455,-25.128Z"
       style="fill:#efefef"
       id="path4188" /></g><g
     id="g4198"
     style="opacity:0.5"><path
       d="M664.595,58.604l0,-74.489l-61.708,25.561l0,74.488l61.708,-25.56Z"
       style="fill:#efefef"
       id="path4192" /><path
       d="M670.026,58.604l0,-74.489l61.708,25.561l0,74.488l-61.708,-25.56Z"
       style="fill:#efefef"
       id="path4194" /><path
       d="M728.772,88.241l-61.708,-25.472l-60.455,25.128l61.709,25.472l60.454,-25.128Z"
       style="fill:#efefef"
       id="path4196" /></g><g
     id="g4206"
     style="opacity:0.5"><path
       d="M731.734,166.384l0,-74.488l-61.708,25.56l0,74.489l61.708,-25.561Z"
       style="fill:#efefef"
       id="path4200" /><path
       d="M737.164,166.384l0,-74.488l61.709,25.56l0,74.489l-61.709,-25.561Z"
       style="fill:#efefef"
       id="path4202" /><path
       d="M795.911,196.022l-61.709,-25.472l-60.454,25.128l61.708,25.472l60.455,-25.128Z"
       style="fill:#efefef"
       id="path4204" /></g><g
     id="g4214"
     style="opacity:0.5"><path
       d="M597.456,166.384l0,-74.488l-61.708,25.56l0,74.489l61.708,-25.561Z"
       style="fill:#efefef"
       id="path4208" /><path
       d="M602.887,166.384l0,-74.488l61.708,25.56l0,74.489l-61.708,-25.561Z"
       style="fill:#efefef"
       id="path4210" /><path
       d="M661.633,196.022l-61.708,-25.472l-60.455,25.128l61.709,25.472l60.454,-25.128Z"
       style="fill:#efefef"
       id="path4212" /></g><g
     id="g4222"
     style="opacity:0.5"><path
       d="M798.392,58.604l0,-74.489l-61.709,25.561l0,74.488l61.709,-25.56Z"
       style="fill:#efefef"
       id="path4216" /><path
       d="M803.822,58.604l0,-74.489l61.709,25.561l0,74.488l-61.709,-25.56Z"
       style="fill:#efefef"
       id="path4218" /><path
       d="M862.569,88.241l-61.709,-25.472l-60.454,25.128l61.708,25.472l60.455,-25.128Z"
       style="fill:#efefef"
       id="path4220" /></g><g
     id="g4230"
     style="opacity:0.5"><path
       d="M329.767,382.202l0,-74.488l-61.708,25.56l0,74.489l61.708,-25.561Z"
       style="fill:#efefef"
       id="path4224" /><path
       d="M335.197,382.202l0,-74.488l61.709,25.56l0,74.489l-61.709,-25.561Z"
       style="fill:#efefef"
       id="path4226" /><path
       d="M393.944,411.84l-61.709,-25.472l-60.454,25.128l61.708,25.472l60.455,-25.128Z"
       style="fill:#efefef"
       id="path4228" /></g><g
     id="g4238"
     style="opacity:0.5"><path
       d="M396.425,274.422l0,-74.489l-61.709,25.561l0,74.488l61.709,-25.56Z"
       style="fill:#efefef"
       id="path4232" /><path
       d="M401.855,274.422l0,-74.489l61.709,25.561l0,74.488l-61.709,-25.56Z"
       style="fill:#efefef"
       id="path4234" /><path
       d="M460.602,304.059l-61.709,-25.472l-60.454,25.128l61.708,25.472l60.455,-25.128Z"
       style="fill:#efefef"
       id="path4236" /></g><g
     id="g4246"
     style="opacity:0.5"><path
       d="M463.48,166.009l0,-74.489l-61.708,25.561l0,74.488l61.708,-25.56Z"
       style="fill:#efefef"
       id="path4240" /><path
       d="M468.91,166.009l0,-74.489l61.709,25.561l0,74.488l-61.709,-25.56Z"
       style="fill:#efefef"
       id="path4242" /><path
       d="M527.657,195.646l-61.709,-25.472l-60.454,25.128l61.708,25.472l60.455,-25.128Z"
       style="fill:#efefef"
       id="path4244" /></g><g
     id="g4254"
     style="opacity:0.5"><path
       d="M128.354,274.658l0,-74.488l-61.708,25.56l0,74.489l61.708,-25.561Z"
       style="fill:#efefef"
       id="path4248" /><path
       d="M133.785,274.658l0,-74.488l61.708,25.56l0,74.489l-61.708,-25.561Z"
       style="fill:#efefef"
       id="path4250" /><path
       d="M192.531,304.296l-61.708,-25.472l-60.455,25.128l61.709,25.472l60.454,-25.128Z"
       style="fill:#efefef"
       id="path4252" /></g><g
     id="g4262"
     style="opacity:0.5"><path
       d="M195.493,382.439l0,-74.489l-61.708,25.561l0,74.488l61.708,-25.56Z"
       style="fill:#efefef"
       id="path4256" /><path
       d="M200.923,382.439l0,-74.489l61.709,25.561l0,74.488l-61.709,-25.56Z"
       style="fill:#efefef"
       id="path4258" /><path
       d="M259.67,412.076l-61.709,-25.472l-60.454,25.128l61.708,25.472l60.455,-25.128Z"
       style="fill:#efefef"
       id="path4260" /></g><g
     id="g4270"
     style="opacity:0.5"><path
       d="M61.215,382.439l0,-74.489l-61.708,25.561l0,74.488l61.708,-25.56Z"
       style="fill:#efefef"
       id="path4264" /><path
       d="M66.646,382.439l0,-74.489l61.708,25.561l0,74.488l-61.708,-25.56Z"
       style="fill:#efefef"
       id="path4266" /><path
       d="M125.392,412.076l-61.708,-25.472l-60.455,25.128l61.709,25.472l60.454,-25.128Z"
       style="fill:#efefef"
       id="path4268" /></g><g
     id="g4278"
     style="opacity:0.5"><path
       d="M262.151,274.658l0,-74.488l-61.709,25.56l0,74.489l61.709,-25.561Z"
       style="fill:#efefef"
       id="path4272" /><path
       d="M267.581,274.658l0,-74.488l61.709,25.56l0,74.489l-61.709,-25.561Z"
       style="fill:#efefef"
       id="path4274" /><path
       d="M326.328,304.296l-61.709,-25.472l-60.454,25.128l61.708,25.472l60.455,-25.128Z"
       style="fill:#efefef"
       id="path4276" /></g><g
     id="g4286"
     style="opacity:0.5"><path
       d="M262.067,58.465l0,-74.489l-61.708,25.561l0,74.489l61.708,-25.561Z"
       style="fill:#efefef"
       id="path4280" /><path
       d="M267.498,58.465l0,-74.489l61.708,25.561l0,74.489l-61.708,-25.561Z"
       style="fill:#efefef"
       id="path4282" /><path
       d="M326.244,88.103l-61.708,-25.472l-60.455,25.127l61.709,25.472l60.454,-25.127Z"
       style="fill:#efefef"
       id="path4284" /></g><g
     id="g4294"
     style="opacity:0.5"><path
       d="M329.206,166.246l0,-74.489l-61.708,25.56l0,74.489l61.708,-25.56Z"
       style="fill:#efefef"
       id="path4288" /><path
       d="M334.636,166.246l0,-74.489l61.709,25.56l0,74.489l-61.709,-25.56Z"
       style="fill:#efefef"
       id="path4290" /><path
       d="M393.383,195.883l-61.709,-25.472l-60.454,25.128l61.708,25.472l60.455,-25.128Z"
       style="fill:#efefef"
       id="path4292" /></g><g
     id="g4302"
     style="opacity:0.5"><path
       d="M194.928,166.246l0,-74.489l-61.708,25.56l0,74.489l61.708,-25.56Z"
       style="fill:#efefef"
       id="path4296" /><path
       d="M200.359,166.246l0,-74.489l61.708,25.56l0,74.489l-61.708,-25.56Z"
       style="fill:#efefef"
       id="path4298" /><path
       d="M259.105,195.883l-61.708,-25.472l-60.455,25.128l61.709,25.472l60.454,-25.128Z"
       style="fill:#efefef"
       id="path4300" /></g><g
     id="g4310"
     style="opacity:0.5"><path
       d="M395.864,58.465l0,-74.489l-61.709,25.561l0,74.489l61.709,-25.561Z"
       style="fill:#efefef"
       id="path4304" /><path
       d="M401.294,58.465l0,-74.489l61.709,25.561l0,74.489l-61.709,-25.561Z"
       style="fill:#efefef"
       id="path4306" /><path
       d="M460.041,88.103l-61.709,-25.472l-60.454,25.127l61.708,25.472l60.455,-25.127Z"
       style="fill:#efefef"
       id="path4308" /></g><g
     id="g4318"
     style="opacity:0.5"><path
       d="M60.952,165.87l0,-74.488l-61.708,25.56l0,74.489l61.708,-25.561Z"
       style="fill:#efefef"
       id="path4312" /><path
       d="M66.382,165.87l0,-74.488l61.709,25.56l0,74.489l-61.709,-25.561Z"
       style="fill:#efefef"
       id="path4314" /><path
       d="M125.129,195.508l-61.709,-25.472l-60.454,25.128l61.708,25.472l60.455,-25.128Z"
       style="fill:#efefef"
       id="path4316" /></g><g
     id="g4324"
     style="opacity:0.5"><path
       d="M1123.79,495.908l0,-74.488l61.708,25.56l0,74.489l-61.708,-25.561Z"
       style="fill:#efefef"
       id="path4320" /><path
       d="M1182.53,525.546l-61.708,-25.472l-60.455,25.128l61.709,25.472l60.454,-25.128Z"
       style="fill:#efefef"
       id="path4322" /></g><g
     id="g4332"
     style="opacity:0.5"><path
       d="M1185.49,603.689l0,-74.489l-61.708,25.561l0,74.488l61.708,-25.56Z"
       style="fill:#efefef"
       id="path4326" /><path
       d="M1190.92,603.689l0,-74.489l61.709,25.561l0,74.488l-61.709,-25.56Z"
       style="fill:#efefef"
       id="path4328" /><path
       d="M1249.67,633.326l-61.709,-25.472l-60.454,25.128l61.708,25.472l60.455,-25.128Z"
       style="fill:#efefef"
       id="path4330" /></g><g
     id="g4340"
     style="opacity:0.5"><path
       d="M1051.21,603.689l0,-74.489l-61.708,25.561l0,74.488l61.708,-25.56Z"
       style="fill:#efefef"
       id="path4334" /><path
       d="M1056.65,603.689l0,-74.489l61.708,25.561l0,74.488l-61.708,-25.56Z"
       style="fill:#efefef"
       id="path4336" /><path
       d="M1115.39,633.326l-61.708,-25.472l-60.455,25.128l61.709,25.472l60.454,-25.128Z"
       style="fill:#efefef"
       id="path4338" /></g><g
     id="g4346"
     style="opacity:0.5"><path
       d="M1252.15,495.908l0,-74.488l-61.709,25.56l0,74.489l61.709,-25.561Z"
       style="fill:#efefef"
       id="path4342" /><path
       d="M1316.33,525.546l-61.709,-25.472l-60.454,25.128l61.708,25.472l60.455,-25.128Z"
       style="fill:#efefef"
       id="path4344" /></g><g
     id="g4352"
     style="opacity:0.5"><path
       d="M1252.07,279.715l0,-74.489l-61.708,25.561l0,74.489l61.708,-25.561Z"
       style="fill:#efefef"
       id="path4348" /><path
       d="M1316.24,309.353l-61.708,-25.472l-60.455,25.127l61.709,25.472l60.454,-25.127Z"
       style="fill:#efefef"
       id="path4350" /></g><g
     id="g4360"
     style="opacity:0.5"><path
       d="M1184.93,387.496l0,-74.489l-61.708,25.56l0,74.489l61.708,-25.56Z"
       style="fill:#efefef"
       id="path4354" /><path
       d="M1190.36,387.496l0,-74.489l61.708,25.56l0,74.489l-61.708,-25.56Z"
       style="fill:#efefef"
       id="path4356" /><path
       d="M1249.11,417.133l-61.708,-25.472l-60.455,25.128l61.709,25.472l60.454,-25.128Z"
       style="fill:#efefef"
       id="path4358" /></g></svg>